<svg xmlns="http://www.w3.org/2000/svg" viewBox="0 0 350 350">
  <path fill="rgba(59,43,34,1)" d="m74.22 334.05.26.65.62 1.25h-.01l-.62-1.25-.25-.66-.12-.99m79.32-319.52 1.02.04 2.37.18 1.23.11 2.62.29 2.65.3 5.19.83 1.22.22 2.16.45 2.62.7 2.52.82 4.82 1.99 2.38 1.05 4.51 2.42 2.21 1.25L195.1 27l2.03 1.45 3.77 3.18 1.83 1.63 3.34 3.5 1.61 1.79 2.87 3.8 1.38 1.93 2.36 4.06 2.94 6.35.46 1.18.67 2.17.3 1.09.39 2.33.17 1.23.17 2.94.04.8.04 1.79.02 3.03V82l4.01.02 2.14.02 4.26.58 2.13.39 4.15 1.27 2.06.72 3.97 1.91 1.95 1.03 3.69 2.47 1.8 1.3 3.32 2.98 1.6 1.54 2.87 3.42 1.37 1.75 2.33 3.8 2.8 6.05 1.01 2.75h18.5l3.37.01h1.58l2.54.03 1.18.02 1.86.08.86.05 1.33.15.62.08.96.24.45.13.74.35 2.1 1.55.79.66 1.03.99.43.49.46 1.06.16.59.04 1.67-.02.48-.07 1.18-.17 2.13-.06.74-.18 1.79-.1.95-.26 2.29-.14 1.21-.36 2.87-.19 1.52-.46 3.54-.25 1.86-.58 4.31-.3 2.25-.71 5.16-.37 2.69-.86 6.09-.22 1.59-.47 3.36-.75 5.34-.2 1.38-.47 3.49-.25 1.83-.54 4.03-.26 2.04-.53 4.09-.71 5.64-.36 2.93-.71 5.1-.36 2.43-.74 4.23-.39 2.02-.82 3.5-.43 1.67-.97 2.93-.51 1.41-1.17 2.51-.61 1.21-1.41 2.24-.74 1.09-1.72 2.11-2.97 3.19-1.55 1.55-3.22 2.63-1.63 1.24-3.42 2.02-1.73.93-3.67 1.44-5.81 1.53-.25.05-.73.08-.4.04-1.06.08-.57.04-1.38.08-.73.03-1.71.07-.89.04-2.03.06-1.05.03-2.34.06-1.22.03-2.66.05-1.37.03-2.97.04-1.53.03-3.29.04-1.69.02-3.6.03-1.84.02-3.91.03-1.99.02-4.22.02-2.14.01-4.53.02-2.3.01-4.82.01-2.45.01-5.13.01h-74.96l-11.16 9.91-1.22 1.08-2.08 1.86-.98.89-1.64 1.54-.77.73-1.28 1.27-.59.61-.96 1.08-.9 1.05-1.14 1.85-1.22 2.98-.44 1.38-.53 2.34-.1.51-.07.75.09.61.02.02.51.04.34.02 1.12.04.64.01 1.7.04.92.02 2.25.03 1.19.02 2.76.03 1.45.01 3.24.03 1.68.02 3.69.03 1.9.01 4.12.03 2.1.01 4.5.02 2.3.01 4.85.02 2.47.01 5.17.02 2.63.01 5.47.02 5.53.01 11.81.02 18.57.01h92.38l3.28 3.28 1 1.72.4.87.13 1.78-.04.9-.72 1.81-2.06 2.72-.53.53-1.02.82-.5.37-1.01.54-.52.23-1.08.27-1.79.16h-3.53l1.93 4.25.45 1 .66 2.09.28 1.06.32 2.17.12 1.09v2.22l-.05 1.12-.32 2.23-.2 1.12-.64 2.21-.36 1.09-.94 2.15-.51 1.07-1.25 2.05-1.31 1.76-.05.02-.13.11-.32.27-.24.21-.53.47-.34.31-.73.66-.45.41-2.3 2.01-1.44 1.14-.69.48-2.69 1.7-1.38.55-2.82.91-1.63.22-1.67.2-.91.05-1.9.08H249l-3.95-.09-2.09-.19-.88-.18-1.7-.43-.81-.33-1.65-.75-.92-.51-4.5-2.5-13.51.13 3.11-.05.98-.02 1.76-.03.85-.02 1.5-.04.71-.02 1.21-.04.56-.02.88-.04.4-.02.54-.04.22-.02.18-.05.05-.03-.12-.27-.09-.17-.37-.49-1.82-2-.83-.82-1.46-1.9-.69-.98-1.17-2.16-.55-1.1-.87-2.34-.4-1.18-.57-2.45-.24-1.23-.24-2.49-.08-1.25.1-2.45.1-1.22.45-2.36 1.09-3.33 1.51-3.5h-48.46l-6 .02-2.94.01-5.55.03-2.71.02-4.99.05-2.42.03-4.3.06-2.06.03-3.49.08-1.63.04-2.56.09-.58.02-.95.05-.45.02-.67.05-.31.02-.38.05-.24.08v.21l.28.32.68.22h.19l.39.35.19.23.39.75.19.42.36 1.07.18.56.32 1.3.31 1.34.41 3.03.17 4.41-.06 1.36-.56 2.8-.34 1.41-1.07 2.77-.59 1.36-1.5 2.57-2.66 3.44-.69.73-.92 1.4-.18.31-.2.53v.53l.02.02.31.04.2.02.67.03.38.02 1.01.03.54.02 1.31.03.7.01 1.6.02.83.01 1.86.02 1.93.02 4.53.03 2.36.01 5.26.01h14.41l12.59-.05 6.3-.02 3.48-.03-8.93.09-10.22.09-6.5.04-3.05.01-5.95.02h-10.31l-4.43-.03-1.85-.01-1.79-.02-.8-.01-1.53-.03-.65-.01-1.25-.03-.51-.02-.94-.03-.36-.02-.62-.04-.19-.02-.29-.04-.02-.02-.53-.05-.69.18-.46.18-1.01.42-.59.28-1.22.62-.65.37-2.64 1.21-1.93.64-1.02.24-4.25.73-2.22.03-4.45-.18-2.13-.42-2.1-.49-.99-.32-1.95-.71-.9-.44-2.85-1.24-1.8-.54-1.02-.15-2.18-.24-1.42-.04-1.49-.02h-.86l-1.8.02-1.05.02-3.84.16-2.35.18-.99.11-1.84.24-.64.14-1.08.28.03-.03 1.07-.29.63-.14 1.79-.27.97-.12 2.28-.2 3.73-.2 9.35-.29-2.65-3.15-.79-.93-1.36-2-.65-1.02-1.1-2.15-.52-1.09-.81-2.25-.38-1.13-.53-2.3-.23-1.15-.23-2.3-.07-1.14.08-2.25.07-1.11.4-2.14.97-3.04.25-.6.4-1.01.19-.47.26-.78.23-.73.03-.88-.07-.37-.58-.35-1.6-.16h-.38l-.86-.22-.43-.13-.93-.46-.93-.51-1.87-1.56-.9-.83-1.5-1.92-1.4-2.87-.1-.42-.05-1.24v-.69l.15-1.68.1-.89.31-1.98.17-1.02.44-2.15.47-2.17 1.22-4.26.32-1.01.66-1.85 1.02-2.35 1.88-3.7-8.53-45.3-1.18-6.22-2.33-12.39-.57-3.04-1.1-5.85-.54-2.88-1.02-5.42-.5-2.64-.9-4.83-.44-2.33-.77-4.07-.36-1.93-.59-3.15-.14-.73-.23-1.25-.29-1.56-.17-.89-.39-2.06-.2-1.07-.44-2.35-.45-2.4-1-5.33-.5-2.7-1.02-5.42-1.42-7.53L55.76 109H31.51l-1.95-.01h-1.89l-3.02-.03-1.41-.02-2.2-.07-1.01-.05-1.55-.13-.7-.08-1.06-.22-.48-.12-.74-.31-1.85-1.41-.92-.85-1.19-1.99-.49-1.02-.31-2.15-.05-1.08.56-2.1 1.86-2.86.46-.47 1.19-.64.37-.14 1.04-.21.58-.1 1.57-.15.87-.07 2.27-.09 1.25-.04 3.15-.04.85-.01 1.9-.02h.99l2.17-.01h1.13l2.48-.01h9.47l2.34.01h1.13l2.04.01.99.01 1.78.02 1.72.02 2.72.07 1.26.04 1.94.12.89.07 1.35.19.62.1.93.27 2.12 1.17.69.52 1.19 1.49.56.83.97 2.26.46 1.25.82 3.22.2.87.38 1.96.56 3.27.59 3.77 20.61-.27 20.62-.27.13-12 .01-1.71.09-2.95.05-1.41.19-2.48.11-1.19.33-2.14.19-1.04.52-1.95.29-.97.75-1.9.41-.96 1.03-2 .55-1.03 1.34-2.24 2.42-3.8 1.13-1.72 2.66-3.29 1.39-1.62 3.18-3.08 1.65-1.5 3.66-2.84 6.02-3.94 1.14-.68 1.94-1.55.91-.81 1.47-1.82.68-.94.99-2.07.44-1.07.51-2.32.2-1.18.04-2.56-.04-1.3-.43-2.78-.28-1.41-.92-3-1.92-4.72-.43-.93-.8-1.83-.37-.9-.63-1.62-.29-.77-.39-1.23-.25-1.21v-.46l.42-1.02.28-.51.86-1.01.48-.49 1.18-.86 1.97-.98.32-.12 1.26-.09.72-.03m117.9 310.39-3.5 4.08 28.56.56-28.77-.56 2.9-3.22 1.02-1.15m-21.06-28.58-.9.12-1.8.32-.86.26-1.7.56-.78.37-1.49.78-.63.46-1.17.96-.43.54-.73 1.11-.17.59-.82 4.22-.08 2.45.2 1.09.57 2.09.53.96 1.24 1.85.88.88 1.3 1.25.57.45 1.12.79.56.25 1.13.42.65.1 1.37.14h.85l2.76-.19 1.67-.31.75-.25 1.44-.56.63-.38 1.2-.8.51-.49.95-1.03.39-.61.71-1.27.26-.72.45-1.5.13-.83.2-1.72v-.94l-.4-3.18-.62-2.09-.45-.94-.99-1.81-.59-.71-1.23-1.28-.66-.36-2.21-.8-1.65-.27-.88-.02m-137.06-.21-3.22.32-1.96.53-.89.4-1.7.89-.74.57-1.39 1.2-.57.71-1.04 1.47-.38.82-.66 1.7-.17.91-.23 1.86.06.97.23 1.98.31 1.02 1.69 3.51 1.63 1.8 1.07.65 1.02.55.59.24 1.25.44.66.18 2.76.55h1.27l2.34-.14 1.27-.25.56-.25 1.11-.59.58-.45 1.18-1.01.71-.71 1.75-1.92.79-1.12.24-.58.4-1.19.09-.71.13-1.52v-.97l-.13-2.49-.25-1.34-.25-.6-.57-1.18-.44-.61-.99-1.27-.69-.75-1.85-1.85-1.07-.84-.54-.26-1.1-.43-.64-.1-1.36-.14m-19.78-60.41-.01.33v.19l.09.55.57 2.18.26.8.57 2.08.67 2.8.16.82.39 1.06.22.43.62.29.35.04 1.01-.46.56-.32 1.57-1.18.72-.57 1.13-1.24.23-.3.32-.52.2-.62-.01-.15-.38-.49-.25-.27-.77-.68-.85-.71-2.28-1.6-1.16-.77-2.1-1.19-.46-.24-.71-.27-.61-.03M147.86 186l-3.1.07-1.58.12-.56.11-.97.23-.27.15-.4.35v.22l.08.67.14.85.1.6.24 1.32.15.81.32 1.73.18 1 .4 2.08.22 1.15.46 2.36.25 1.27 1.05 5.31.57 2.85 4.18 20.75h67.54l1.07-5.25.96-4.82.67-3.54.34-1.86 1.36-7.62.61-3.6.59-3.54.25-1.6.49-3.07.19-1.29.34-2.39.1-.87.1-.8.02-.3.05-.54v-.16l-.11-1.58-.33-.65-.44-.17-.48-.15-.34-.05-.74-.08-.48-.02-1.04-.04h-.66l-1.4-.01h-7.73l-.62 3.08-1.11 3.31-1.18 2.08-.79.98-1.72 1.92-1.07.88-2.25 1.71-1.33.78-2.82 1.47-1.8.66-1.08.22-1.12.2-.64.08-1.35.14-.79.06-1.66.11-.98.05-2.05.08-1.2.04-2.96.09-1.75.02h-.78l-2.88-.06-1.16-.11-2.17-.25-.94-.22-1.82-.49-.9-.34-4.35-2.13-2.57-1.76-1.1-1.02-2.06-2.14-.82-1.2-1.49-2.46-.51-1.33-1.7-4.45m-44.8 0-4.52.01-2.51.02-1.04.03-1.93.05-.79.04-1.46.1-.58.07-1.06.14-.42.1-.77.21-.31.13-1.05.61-.43.43-1.31 1.7-.68 1.33-.25.75-.42 1.54-.12.85-.18 1.72.01.92.07 1.86.13.97.33 1.97.25 1 1.28 4.08 1.02 2.03 2.13 3.74 1.58 2.32.88 1.08 1.82 2.08.98.96 2.03 1.84 1.1.83 2.24 1.61 1.2.71 2.44 1.35 1.3.58 2.64 1.1 1.4.46 2.83.84 1.49.32 3.26.65 1.54.23 3 .39 1.27.1 2.39.11.84-.06.77-.08.27-.06.48-.16.11-.11.03-.44-.04-.6-.06-.44-.13-.98-.09-.61-.2-1.3-.13-.76-.58-3.31-.38-1.97-.8-4.11-.46-2.23-1.38-6.72-.89-4.34-.4-1.95-.39-1.9-.18-.87-.34-1.66-.15-.73-.28-1.38-.12-.55-.21-1.03-.07-.36-1.07-5.25m115.32 0-1.72 9.75-.84 4.69-.67 3.65-.36 1.92-.72 3.89-.35 1.87-.7 3.65-.3 1.58-.83 4.54-.44 2.72-.16 1.12-.26 2.07-.06.69-.04.62.01.22.02.35.03.06.41.29.5.08 1.18.14.81.01 1.76-.01 1.02-.04 2.14-.13 1.15-.11 4.74-.51 2.22-.38 2.15-.39.95-.22 1.78-.44.69-.24 2.52-1.09 1.73-.96.87-.57 3.49-2.55 1.63-1.53 3.15-3.19 1.3-1.7 1.23-1.7.53-.85.97-1.7.37-.83 1.67-5.42.62-3.96.05-1.97-.06-3.9-.3-1.74-.33-1.69-.24-.76-.51-1.46-.33-.62-1.7-3.25m-82.27 2.15-4.4.04-2.39.04-17.39.27 7.64 7.5h10.06l2.86-.02 1.65-.03.72-.03 2.58-.15.97-.15 1.78-.35.72-.27 1.37-.6.68-.42 2.04-1.53 1.11-1.1.39-.53.66-1.04.11-.43.06-.78-.23-.24-.44-.07-.62-.04-.46-.01-1.03-.03-.65-.01-1.38-.02-.8-.01h-3.52M81.53 130l-1.55.01h-.72l-1.15.03-.53.02-.81.07-.37.04-.51.13-.45.15-.24.52.22 1.28.12.41.34 1.44.18.81.44 2.12.23 1.13.5 2.63.26 1.36.55 2.94.54 3 1.07 6.2.25 1.51.46 2.85.58 3.85.29 1.95.65 3.51.34 1.67.7 2.68.17.61.34.99.16.46.31.67.16.29.27.31h.36l.06-.06-.01-.53-.02-.32-.16-.96-.1-.53-.29-1.27-.15-.66-.39-1.45-.52-1.84-.78-3.31-.35-1.61-.44-2.96-.17-1.46-.06-2.79.02-1.38.34-2.78.22-1.41.76-2.94.44-1.51 1.22-3.27.67-1.69 1.69-3.76 3.12-6.4.05-.1-.51-.19-.35-.09-1.19-.15-.66-.07-1.7-.09-2.96-.06m28.49 0-4.63 4.25-4.18 4.72-2.35 3.58-.92 1.9-1.63 3.84-.49 1.92-.76 3.8v1.77l.32 3.9.5 2.64.37 1.24.82 2.42.49 1.04 1.06 1.94.58.71.45.26.61.11.69.11.46.05 1.01.09.63.05 1.35.08.82.04 1.73.07 1.03.04 2.15.06 1.25.03 2.61.06 1.48.02 3.1.05 1.74.02 3.63.04 2.01.02 4.18.03 2.32.01 4.77.02 2.62.01 5.4.02 2.95.01 6.07.01 3.29.01h6.77l3.65.01h90.74l2.13-2.26 2.11-2.87 1.19-2.26.46-1.23.82-2.52.25-1.28.38-2.57v-1.23l-.17-1.81-.26-1.4-.19-.76-.92-3.17-.6-1.55-1.26-3.02-.65-1.16-.65-1.08-.3-.39-.6-.7-.26-.16-.82.06-.88.35-.57.31-1.19.69-.66.45-1.37.96-.7.56-1.99 1.53-1.12.82-.48.31-.91.56-.4.19-.76.31-.35.06-1.32.04-.67-.31-1.41-.84-.9-.7-1.29-1.25-.66-.89-.23-.47-.38-.96-.1-.5-.12-1.01.04-.52.42-2.09.61-1.05 1.48-2.09 1.13-1 3.54-3.1m-100 4.23 2.62.39 1.45.39.64.28 1.24.65.61.45 1.23.99.68.66 2.66 3.15 1.31 2.22.41 1.16.67 2.37.1 1.24.03 2.5-.22 1.31-.99 3.46-1.03 2.06-.71.91-1.54 1.74-.97.77-2.07 1.46-1.24.64-1.7.79-.84.28-1.66.48-.81.13-1.63.17-.8-.03-1.59-.13-.78-.19-1.55-.44-.76-.34-1.51-.76-.75-.49-1.47-1.07-.73-.64-1.43-1.38-.71-.8-1.71-2.14-.75-1.25-.23-.67-.36-1.4-.08-.89-.1-1.95V149l.1-3.22.21-1.61.21-.66.5-1.25.41-.62.91-1.24.66-.74 2.99-2.84 2.08-1.36 1.12-.43 2.32-.71 1.3-.13 2.71-.11m66.48-.07 4.13.52 2.49.86 1.09.68 2.1 1.53.89 1.01 1.69 2.19.68 1.34 1.11 2.72.48 1.83.11.91.13 1.82-.06.9-.21 1.79-.23.88-.54 1.73-.39.83-.87 1.65-.55.79-1.18 1.54-.71.72-1.5 1.4-.86.65-1.83 1.07-1.17.38-2.49.63-1.32.13-2.66.14-1.23-.13-2.36-.39-.9-.42-2.78-1.57-1.61-1.19-.69-.67-1.31-1.36-.53-.73-1-1.5-.39-.78-.71-1.59-.24-.82-.42-1.65-.1-.83-.14-1.67.04-.83.13-1.66.17-.81.4-1.61.3-.77.66-1.53.43-.71.91-1.4.55-.65 1.15-1.24.67-.55 1.39-1.05.78-.44 1.61-.82.9-.31 1.84-.55.99-.16 2.06-.26m65.62-4h-1.72l-.8.01-1.22.06-.56.04-.74.17-.32.1-.3.33-.1.19.12.56.11.3.5.83.3.45.87 1.16 1.68 2.17.9 1.15 1.51 2.79.7 1.45 1.07 3.31.48 1.7.62 3.71.38 5.9v1.08l.05 1.64.04.73.11.97.07.39.17.31.1.06.22-.34.12-.26.27-.98.14-.57.31-1.6.16-.88.34-2.21.17-1.17.37-2.81.35-2.81.75-5.96.18-1.41.32-2.46.36-2.85.68-5.25m-144.56 12.23-1.06.51-.46.46-.89 1.24-.27.85.03.43.17.88.25.45.61.91.47.47.93.88.39.25.73.35.35-.02.7-.19.39-.3.84-.74.52-.58.81-1.03.31-.62.05-.3.02-.6-.09-.34-.25-.69-.23-.42-1.17-1.37-.98-.55-.54-.08-1.09-.03m64.99.44-.95.76-.26.56-.35 1.24.09.7.37 1.44.49.71.92 1.09.49.31 1 .45.51-.02 1.01-.18.48-.33.93-.82.41-.65.51-1.75-.17-1.18-.3-.52-.74-1-.54-.37-1.2-.63-.73-.11m-45.5-103.47.12 4.95-.17 3.03-.22 1.4-.54 2.72-.41 1.27-.94 2.49-.63 1.18-1.37 2.31-.86 1.11-1.84 2.21-1.11 1.08-2.34 2.16-1.38 1.08-2.88 2.17L148.5 69l-2.9 2.04-1.75 1.31-.79.65-2.95 2.6-1.24 1.37-2.35 2.82-1.06 1.61-2.06 3.4-1.03 2.03-1.51 3.28-.67 1.93-.2 1.02-.33 2.15-.07 1.35-.06 1.42-.01.82-.02 1.71v.99l.06 3.63.09 2.27.06.97.14 1.82.09.67.18 1.15.1.24.21.39.28.16.68.29.64.12.7.12.45.05.96.1.6.04 1.28.09.77.03 1.64.07.96.03 2.04.05 1.19.03 2.49.04 1.42.02 2.99.03 1.69.01 3.53.03 1.98.01 4.11.01 2.29.01 4.75.01h2.62l5.43.01h12.49l13.15-.02 4.06-.01 1.92-.01 3.78-.01 1.79-.02 3.51-.02 1.66-.01 3.23-.03 1.51-.02 2.96-.03 1.37-.02 2.67-.04 1.23-.02 2.38-.04 1.08-.02 2.1-.05.94-.03 1.8-.05.79-.03 1.5-.06.64-.03 1.21-.06.49-.04.9-.06.33-.04.6-.07.18-.04.28-.08.03-.04-.1-1.02-.53-.99-.45-.61-1.02-1.29-.65-.7-1.37-1.45-.78-.74-3.3-2.97-1.66-1.23-1.65-1.17-.76-.46-1.46-.83-.62-.23-3.82-1.13-2.71-.48-1.41-.12-2.84-.14-1.44.05-2.89.18-1.44.21-2.86.5-1.39.37-2.74.8-1.3.51-2.55 1.09-1.17.65-2.27 1.38-1 .78-2.23 1.48-1.26.46-.59-.03-1.16-.24-.61-.39-1.27-.95-.75-.74-1.18-1.34-.58-.85-.18-.42-.3-.83-.03-.43-.01-.86.12-.46.3-.93.27-.5.62-1.03.43-.57.94-1.17.59-.65 1.27-1.36.77-.76 2.74-2.9 1.4-1.74.54-.84 1-1.69.39-.92.73-1.89.32-1.11 1.02-4.82.3-3.24-.02-1.62-.18-3.24-.27-1.6-.65-3.2-.5-1.58-1.11-3.12-.72-1.53-1.56-3.02-.95-1.45-2-2.88-1.16-1.37-2.42-2.7-1.37-1.26-5.48-4.4-4.02-2.65-2.05-1.12-4.09-2.05-1.92-.73-1.88-.66-.88-.24-1.71-.42-.78-.1-4.03-.54Z"/>
  <path fill="rgba(202,128,10,1)" d="m239.03 299.07-.5.83-.16.44-.23.89-.02.47.17 1.92.49 1.01 1.22 2.04 1.01 1.03 2.84 2.37.94.61.42.21.8.36.3.06 2.83.29 1.43-.19 2.82-.58 1.25-.55 2.37-1.25.86-.82.8-.84.29-.46.51-.93.12-.5-.04-2.42-.09-.31.14.47.4 3.18v.94l-.2 1.72-.13.83-.45 1.5-.26.72-.71 1.27-.39.61-.95 1.03-.51.49-1.2.8-.63.38-1.44.56-.75.25-1.67.31-2.76.19h-.85l-1.37-.14-.65-.1-1.13-.42-.56-.25-1.12-.79-.57-.45-1.3-1.25-.88-.88-1.24-1.85-.53-.96-.57-2.09-.2-1.09.08-2.45.82-4.22.17-.59.73-1.11.37-.46M101.29 302l-.04.81.16.41.44.86.43.54 1.02 1.16.75.77 3.29 2.74 1.16.75.53.28 1.03.5.41.12 1.74.41.79.09 1.47.08.36-.11 2.5-.44 1.68-.5 1.11-.75.52-.54.98-1.17.41-.7.73-1.47.23-.8.38-1.8v-.97l-.16-.44.16.33.25.6.25 1.34.13 2.49v.97l-.13 1.52-.09.71-.4 1.19-.24.58-.79 1.12-1.75 1.92-.71.71-1.18 1.01-.58.45-1.11.59-.56.25-1.27.25-2.34.14h-1.27l-2.76-.55-.66-.18-1.25-.44-.59-.24-1.02-.55-1.07-.65-1.63-1.8-1.69-3.51-.31-1.02-.23-1.98-.06-.97.23-1.86.17-.91.66-1.7.17-.37m19.83-2.17.03.04-.04-.05-.68-.74m136.27-.68.59.71.05.08-.6-.73-1.22-1.3m-138.55-1.03.54.26 1.07.84.49.49-.5-.49-1.06-.83-.53-.26-.42-.17m-11.44 1.73.12-.1.4-.21m145.31-1.7 1.65.27 2.21.8-2.88-.8-2.43-.17-1.3.08-2.37.25 1.56-.28.9-.12 1.78-.05m-140.63.24-2.28.7.67-.3 1.96-.53 3.22-.32h.14m2.72.24h.01l-.24-.04m105.98-91.62-.61 3.6-1.36 7.62-.34 1.86-.67 3.54-.96 4.82-1.07 5.25h-67.54l-4.18-20.75-.57-2.85-.25-1.26.49 2.35.38 1.75.74 3.38.33 1.42.31 1.36.14.59.27 1.11.12.44.21.8.08.27.14.44.05.07.37.17.56.07 1.34.15.99.06 2.18.12 1.36.05 2.88.09 1.65.03 3.45.07 1.9.03 3.88.04 2.06.02 8.5.03 4.39-.02 8.77-.05 4.11-.06 4.05-.07 1.9-.04 3.68-.09 1.66-.05 3.18-.1 1.36-.06 2.54-.13.99-.07 1.78-.14.56-.08.87-.16.06-.09.21-.54.18-.61.1-.42.46-1.94.28-1.3.57-2.8.31-1.6.62-3.3.31-1.72.23-1.32m-129.52 3.06.47.63 1.87 2.05 1.55 1.32.92.63 1.93 1.25 1.08.58 2.25 1.14 1.23.53 2.52 1.02 1.36.46 2.76.89 1.45.38 6 1.38 3.18.41 2.3.29.94.12 1.75.2.7.07 1.29.11.5.01h.9l.32-.04.57-.11.19-.11.33-.24.09-.17.2-.81v-.64l-.15-1.6-.24-1.63-.17-1.02-.33-1.83.23 1.12.46 2.23.8 4.11.38 1.97.58 3.31.13.76.2 1.3.09.61.13.98.06.44.04.6-.03.44-.11.11-.48.16-.27.06-.77.08-.84.06-2.39-.11-1.27-.1-3-.39-1.54-.23-3.26-.65-1.49-.32-2.83-.84-1.4-.46-2.64-1.1-1.3-.58-2.44-1.35-1.2-.71-2.24-1.61-1.1-.83-2.03-1.84-.98-.96-1.82-2.08-.88-1.08-1.58-2.32-2.13-3.74-1.02-2.03-.52-1.67m181-15.71.33.62.51 1.46.24.76.33 1.69.3 1.74.06 3.9-.05 1.97-.62 3.96-1.67 5.42-.37.83-.97 1.7-.53.85-1.23 1.7-1.3 1.7-3.15 3.19-1.63 1.53-3.49 2.55-.87.57-1.73.96-2.52 1.09-.69.24-1.78.44-.95.22-2.15.39-2.22.38-4.74.51-1.15.11-2.14.13-1.02.04-1.76.01-.81-.01-1.18-.14-.5-.08-.41-.29-.03-.06-.02-.35-.01-.22.04-.62.06-.69.26-2.07.16-1.12.44-2.72.83-4.54.3-1.58.7-3.65.35-1.87.72-3.89.36-1.92.67-3.65.84-4.69.1-.54-.1.58-.61 3.47-.32 1.82-.66 3.69-.32 1.79-.63 3.51-.29 1.57-.54 2.98-.22 1.15-.2 1.09-.09.44-.15.8-.06.28-.59 2.88 5.86-.73 3.47-.61 2.17-.57 1.01-.36 1.98-.78.92-.47 1.8-1 .83-.58 1.61-1.21.74-.69 1.43-1.44.65-.8 1.26-1.66.56-.91 1.09-1.88.47-1.03 1.65-4.48.57-2.83.03-1.36-.11-2.69-.32-1.31-.81-2.61-.66-1.3-2.02-3.96h12.99m-179.81 5.04-.25.78-.43 1.63-.13.87-.2 1.78-.01.92.1 1.87-.04-.28-.07-1.86-.01-.92.18-1.72.12-.85.42-1.54.25-.75.68-1.33 1.31-1.7-1.26 1.71m131.76-3.13.33.65.11 1.58v.16l-.01.02v-.18l-.11-1.58-.32-.65-.05-.02m-82.23.3-.28.48v.14l-.02-.17v-.22l.4-.35h.01m.25-.15h.01l.03-.01m-40.48-16.48.69.11.47.05 1 .09.63.05 1.36.08.82.04 1.74.07 1.02.04 2.16.06 1.25.03 2.61.06 1.49.02 3.11.05 1.74.02 3.63.04 2.02.02 4.19.03 2.32.01 4.78.02 2.63.01 5.41.02 2.95.01 6.08.01 3.3.01h6.78l3.67.01h7.51-7.65l-3.65-.01h-6.77l-3.29-.01-6.07-.01-2.95-.01-5.4-.02-2.62-.01-4.77-.02-2.32-.01-4.18-.03-2.01-.02-3.63-.04-1.74-.02-3.1-.05-1.48-.02-2.61-.06-1.25-.03-2.15-.06-1.03-.04-1.73-.07-.82-.04-1.35-.08-.63-.05-1.01-.09-.46-.05-.69-.11-.61-.11-.45-.26.45.26m160.8-30.19.6.7.3.39.65 1.08.65 1.16 1.26 3.02.6 1.55.92 3.17.19.76.26 1.4.17 1.81v1.23l-.38 2.57-.25 1.28-.82 2.52-.46 1.23-1.19 2.26-2.11 2.87-1.69 1.79.64-2.28.29-1.55.17-1.39.06-.81.19-3.45-.03-1.69-.17-3.18-.25-1.81-.22-.83-.49-1.61-.35-.8-.79-1.62-.52-.9-2.17-3.26-.62-.75-.24-.24-.43-.36h-.12l-.58.14-.58.21-.35.16-1.56.75-.49.28.35-.23 1.12-.82 1.99-1.53.7-.56 1.37-.96.66-.45 1.19-.69.57-.31.88-.35.82-.06m-14.19 6.89.67.31 1.32-.04.35-.06.36-.15-.27.14-.85.3-.38-.03-.75-.16-.44-.25-.82-.54m-3.21-9.8-.61 1.05-.13.65.19-1.05.24-.48.58-.95.47-.52.63-.64M126 191.61l.21 1.03.12.55.28 1.38.15.73.34 1.66.18.87.39 1.9.12.6-.4-1.89-.54-2.61-.24-1.14-.44-2.15-.16-.79-1.15-5.75 1.07 5.25m117.52-5.13-.81.06-1.48.12-.45.07-.61.13.08-.5h8.8l-3.49.05m-.76-52.24.75-.66.05-.05-.8.71Z"/>
  <path fill="rgba(224,222,212,1)" d="m270.32 322.73-.05.08-.26.3-1.43 1.61-2.9 3.22 28.77.56.96 2.72.19.54.2.88.06.43-.06.73-.07.36-.34.69-.86 1.12-.23.25-.62.42-.2.09-.57.18-.33.08-.9.15-.5.07-1.32.12-.73.06-1.86.11-1.01.05-2.5.08-1.34.04-3.24.07-1.73.03-4.09.06-2.16.02-5.04.04-1.33.01-2.85.01-1.46.01-3.12.02h-1.59l-3.41.01-1.75.01-3.71.01h-1.89l-4.02.01h-2.06l-4.35.01h-9.29l-5.05.01h-55.2l-5.16-.01h-9.78l-4.56-.01h-6.52l-2.1-.01h-4l-1.97-.01-3.73-.01-3.67-.01-6.57-.02-3.17-.01-5.63-.04-2.7-.01-4.76-.04-2.27-.03-3.96-.05-1.88-.02-3.23-.07-1.54-.03-2.57-.07-1.22-.04-2-.09-.93-.05-1.5-.1-.69-.05-1.07-.12-.48-.06-.71-.14-.63-.14-.51-.33-.47-.48-.62-1.25-.26-.65-.17-1.41-.03-.69.29-1.28.97-1.48.17-.15 1.08-.28.64-.14 1.84-.24.99-.11 2.35-.18 3.84-.16 1.05-.02 1.8-.02h.86l1.49.02 1.42.04 2.18.24 1.02.15 1.8.54 2.85 1.24.9.44 1.95.71.99.32 2.1.49 2.13.42 4.45.18 2.22-.03 4.25-.73 1.02-.24 1.93-.64 2.64-1.21.65-.37 1.22-.62.59-.28 1.01-.42.46-.18.69-.18.53.05.02.02.29.04.19.02.62.04.36.02.94.03.51.02 1.25.03.65.01 1.53.03.8.01 1.79.02 1.85.01 4.43.03h10.31l5.95-.02 3.05-.01 6.5-.04 10.22-.09 50.85-.5 4.5 2.5.92.51 1.65.75.81.33 1.7.43.88.18 2.09.19 3.95.09h1.06l1.9-.08.91-.05 1.67-.2 1.63-.22 2.82-.91 1.38-.55 2.69-1.7.69-.48 1.44-1.14 2.3-2.01.45-.41.73-.66.34-.31.53-.47.24-.21.32-.27.13-.11.13-.07.03-.02m-22.15-11.1 1.36.03-.46.06-.94-.09m-4.15-1.37 1.61.84.61.18 1.14.26-1.1-.11-.3-.06-.8-.36-.42-.21-.94-.61-.52-.43m-132.69 1.33 1.51.37-1.68-.4-.41-.12-.12-.06m9.07-.29.68-.46m.43-.29.21-.22m137.54-1.29-.86.82-.05.03.83-.77.58-.6m.59-.78-.29.46-.03.03.29-.45.35-.63M106.77 296.2l-.12.36.12.22.37.5.34.34 1.17 1.6.31 1.07-.08.54-.31 1.11-.4.59-.95 1.21-.71.66-1.38 1.34-.48.63-.04.26.05.43-.61-.51-.75-.77-1.02-1.16-.43-.54-.44-.86-.16-.41.04-.81.49-1.43.37-.81 1.37-1.47.77-.7 1.99-1.16.51-.25m136.87-.14-.42.43.04.24.26.51.44.27.96 1.38.13 1.27-.16.72-.47 1.44-.44.68-1 1.31-.67.49-2.41 1.75-1.14-1.9-.49-1.01-.17-1.92.02-.47.23-.89.16-.44.5-.83.28-.4.76-.75 1.43-1.02.84-.49 1.4-.43M123.2 301.8l.17.47v.97l-.38 1.8-.01.04.37-1.76.01-.96-.15-.46-.38-.9m-.49-.71.42.56.06.12-.37-.53-.28-.36m-6.64-5.21.62.11 1.08.43.53.26 1.06.83 1.81 1.79.03.03-2.24-2.06-1.74-1.04-.93-.28-.49-.1M96.11 188.16l1.7.77.76.94.17.62.22 1.34-.12.75-.38 1.56-.43.81-.65.92-.45.32-.95.57-.52.14-1.05.16-.48-.09-.92-.3-.34-.34-.51-1.29-.14-1.31.02-.73.1-1.5.15-.67.33-1.27.26-.4 1.3-.84 1.28-.25m98.83.07.8.01 1.38.02.65.01 1.03.03.46.01.62.04.44.07.23.24-.06.78-.11.43-.66 1.04-.39.53-1.11 1.1-2.04 1.53-.68.42-1.37.6-.72.27-1.78.35-.97.15-2.58.15-.72.03-1.65.03-2.86.02h-10.06l-7.64-7.5 17.39-.27 2.39-.04 4.4-.04 2.09-.01m-76.91-55.95.89.3.3.3.49.69.08.47.03 1.01-.17.61-.49 1.28-.46.72-1.06 1.49-.77.8-2.84 3.35-1.52 2.23-.59 1.15-1.08 2.33-.39 1.25-.68 2.57-.22 1.41-.81 3.29-.33.86-.16.31-.33.52-.15.1-.75.47-.31.11-.61.14-.29-.06-.59-.21-.34-.24-.7-.57-.44-.44-1.06-1.19-.37-.76-.03-.54.05-1.24.17-.98.19-1.05.14-.64.28-1.39.18-.84 1.36-5.01 1.13-2.88.68-1.24 1.44-2.36.86-1 1.81-1.9 1.06-.81 2.52-1.59 1.51-.65.65-.13 1.23-.14m30.98 9.99.54.08.98.55 1.17 1.37.23.42.25.69.09.34-.02.6-.05.3-.31.62-.81 1.03-.52.58-.84.74-.39.3-.7.19-.35.02-.73-.35-.39-.25-.93-.88-.47-.47-.61-.91-.25-.45-.17-.88-.03-.43.27-.85.89-1.24.46-.46 1.06-.51.54-.18m67.69.25 1.2.63.54.37.74 1 .3.52.17 1.18-.51 1.75-.41.65-.93.82-.48.33-1.01.18-.51.02-1-.45-.49-.31-.92-1.09-.49-.71-.37-1.44-.09-.7.35-1.24.26-.56.95-.76 1.97-.3M168.2 31.3l.78.1 1.71.42.88.24 1.46.52-.34-.01-.26.18-.44.49-.12.45-.19 1.03-.02.75-.02 1.64.04 1.06.09 2.29.06 1.41.11 3.16.04 1.76v.74l-.08 2.67-.18 1.08-.47 2.06-.43 1.1-.46 1.14-.29.64-.62 1.34-.38.79-2.28 4.27-1.66 2.33-1.15 1.18-1.23 1.2-.75.66-1.59 1.34-.96.77-2.04 1.6-1.23.93-2.6 1.95-1.55 1.14-2.87 2.27-1.71 1.52-.76.77-2.78 3.13-1.07 1.69-1.92 3.51-.69 1.98-.65 2.03-.27 1.09-.5 2.23-.2 1.2-.39 2.29-.24 1.25-.11.51-.23.94-.11.37-.24.68-.13.26-.56.82-.39.19-.87.29-.62.07-1.35.05-.66-.14-.25-.17-.44-.42-.17-.34-.31-.77-.13-.54-.18-1.21-.07-1.05v-.61l.04-2.68.11-1.49.27-3.03.21-1.41.45-2.69.27-.97.06-.44-.1.02-.11.15-.26.39-.08.14.35-.77 1.03-2.03 2.06-3.4 1.06-1.61 2.35-2.82 1.24-1.37 2.95-2.6.79-.65 1.75-1.31 2.9-2.04 1.65-1.12 2.88-2.17 1.38-1.08 2.34-2.16 1.11-1.08 1.84-2.21.86-1.11 1.37-2.31.63-1.18.94-2.49.41-1.27.54-2.72.22-1.4.17-3.03-.12-4.95-.55-7.96M130.64 90.9l-.37 1.73-.15 1.03-.28 2.16-.1 1.18-.19 2.4-.05 1.04.02-1.64.01-.82.06-1.42.07-1.35.33-2.15.2-1.02.67-1.93.15-.32m63.79-42.16 1.16 1.37 2 2.88.95 1.45 1.56 3.02.72 1.53L202.3 61l.5 1.58.65 3.2.27 1.6.18 3.24.02 1.62-.04.43v-.83l-.05-2.33-.1-1.24-.76-4.7-.87-3.12-.61-1.54-1.33-3.07-.83-1.5-1.75-2.96-1.02-1.42-1.93-2.52m-2.25-2.51.39.44-.63-.65m7 42.49.58-.85 1.87-3.16-.04.1-.39.92-1 1.69-.54.84-1.4 1.74-2.74 2.9 2.32-2.5Z"/>
  <path fill="rgba(250,180,6,1)" d="m110.64 310.97-.78-.23-1.79-.87-2.17-1.46-.46-.41-.56-.6-.22-.28-.05-.49.04-.26.48-.63 1.38-1.34.71-.66.95-1.21.4-.59.31-1.11.08-.54-.31-1.07-1.17-1.6-.34-.34-.37-.5-.12-.22.12-.36.13-.17.69-.32 1.77-.54 1.23-.34 2.19-.24 1.05-.04 1.92.39.93.28 1.74 1.04 2.52 2.32.64.73.87 1.13.37.53.39.93.15.46-.01.96-.37 1.76-.23.79-.73 1.45-.4.7-.99 1.17-.51.53-1.11.75-1.68.5-2.5.44-.36.12-1.42-.08-.76-.08m133.98-.21-.61-.18-1.61-.84-2.2-1.53-2.19-1.88 2.67-1.95.67-.49 1-1.31.44-.68.47-1.44.16-.72-.13-1.27-.96-1.38-.44-.27-.26-.51-.04-.24.42-.43.28-.2.94-.33.52-.16 1.3-.21 1.36-.18 3.09.09.75.07 1.39.27 1.77.64.66.36 1.27 1.34.6.74.99 1.8.45.93.52 1.86.04 2.42-.12.51-.54.96-.3.47-.84.87-.91.84-2.45 1.27-1.29.55-2.82.52-.7.07-1.38-.03-.68-.05m-13.19-93.08.06-.28.15-.8.09-.44.2-1.09.22-1.15.54-2.98.29-1.57.63-3.51.32-1.79.66-3.69.32-1.82.61-3.47.29-1.68.5-2.88.11-.67.2-1.15.09-.55.15-.88.06-.4.09-.56.05-.42v-.08l.71-.15.45-.07 1.48-.12.81-.06 2.04-.07 3.49-.05h8.98l2.02 3.96.66 1.3.81 2.61.32 1.31.11 2.69-.03 1.36-.57 2.83-1.65 4.48-.47 1.03-1.09 1.88-.56.91-1.26 1.66-.65.8-1.43 1.44-.74.69-1.61 1.21-.83.58-1.8 1-.92.47-1.98.78-1.01.36-2.17.57-3.47.61-5.86.73.59-2.88m-113.45.64-3.18-.41-6-1.38-1.45-.38-2.76-.89-1.36-.46-2.52-1.02-1.23-.53-2.25-1.14-1.08-.58-1.93-1.25-.92-.63-1.55-1.32-1.87-2.05-.47-.63-.74-1.47-.34-.76-.51-1.69-.45-1.72-.19-3.69.01-.92.2-1.78.13-.87.43-1.63.25-.78.66-1.39 1.26-1.71.43-.43 1.05-.61.31-.13.77-.21.42-.1 1.06-.14.58-.07 1.46-.1.79-.04 1.93-.05 1.04-.03 2.51-.02 4.52-.01h14.93l1.15 5.75.16.79.44 2.15.24 1.14.54 2.61 1.69 8.01.27 1.23.48 2.43.23 1.19.38 2.15.17 1.02.24 1.63.15 1.6v.64l-.2.81-.09.17-.33.24-.19.11-.57.11-.32.04h-.9l-.5-.01-1.29-.11-.7-.07-1.75-.2-.94-.12m-25.19-24.36.43-.81.38-1.56.12-.75-.22-1.34-.17-.62-.76-.94-1.7-.77-.65-.09-1.28.25-1.3.84-.26.4-.33 1.27-.15.67-.1 1.5-.02.73.14 1.31.51 1.29.34.34.92.3.48.09 1.05-.16.52-.14.95-.57.45-.32m50.2 23.25-.05-.07-.14-.44-.08-.27-.21-.8-.12-.44-.27-1.11-.14-.59-.31-1.36-.33-1.42-.74-3.38-.38-1.75-.78-3.72-.39-1.87-.74-3.65-.36-1.78-.61-3.17-.14-.74-.24-1.32-.12-.63-.18-1.06-.08-.49-.1-.74-.07-.7v-.34l.28-.48.2-.21.83-.28.51-.12 1.59-.12 3.45-.07h6.87l1.7 4.45.51 1.33 1.49 2.46.82 1.2 2.06 2.14 1.1 1.02 2.57 1.76 4.35 2.13.9.34 1.82.49.94.22 2.17.25 1.16.11 2.88.06h.78l1.75-.02 2.96-.09 1.2-.04 2.05-.08.98-.05 1.66-.11.79-.06 1.35-.14.64-.08 1.12-.2 1.08-.22 1.8-.66 2.82-1.47 1.33-.78 2.25-1.71 1.07-.88 1.72-1.92.79-.98 1.18-2.08 1.11-3.31.62-3.08h7.73l1.4.01h.66l1.04.04.48.02.74.08.34.05.48.15.44.17.32.65.11 1.58v.23l-.05.69-.03.39-.11.97-.13 1.04-.39 2.72-.22 1.43-.54 3.27-.27 1.66-.61 3.46-.31 1.72-.62 3.3-.31 1.6-.57 2.8-.28 1.3-.46 1.94-.1.42-.18.61-.21.54-.06.09-.87.16-.56.08-1.78.14-.99.07-2.54.13-1.36.06-3.18.1-1.66.05-3.68.09-1.9.04-4.05.07-4.11.06-8.77.05-4.39.02-8.5-.03-2.06-.02-3.88-.04-1.9-.03-3.45-.07-1.65-.03-2.88-.09-1.36-.05-2.18-.12-.99-.06-1.34-.15-.56-.07m-47.81-49.62-.58-.71-1.06-1.94-.49-1.04-.82-2.42-.37-1.24-.5-2.64-.32-3.9v-1.77l.76-3.8.49-1.92 1.63-3.84.92-1.9 2.35-3.58 4.18-4.72 4.63-4.25h138.11l-3.59 3.15-.75.66-1.07 1.08-.47.52-.58.95-.24.48-.19 1.05.02 1.91.05.61.25 1.09.14.53.45.94.25.45.68.82 1.29 1.15.67.5.97.64.44.25.75.16.38.03.85-.3 1.77-.93.83-.48 1.56-.75.35-.16.58-.21.58-.14h.12l.43.36.24.24.62.75 2.17 3.26.52.9.79 1.62.35.8.49 1.61.22.83.25 1.81.17 3.18.03 1.69-.19 3.45-.06.81-.17 1.39-.29 1.55-.77 2.75h-90.91l-3.67-.01h-6.78l-3.3-.01-6.08-.01-2.95-.01-5.41-.02-2.63-.01-4.78-.02-2.32-.01-4.19-.03-2.02-.02-3.63-.04-1.74-.02-3.11-.05-1.49-.02-2.61-.06-1.25-.03-2.16-.06-1.02-.04-1.74-.07-.82-.04-1.36-.08-.63-.05-1-.09-.47-.05-.69-.11-.61-.11m53.36-6.9 1.24-.64 2.07-1.46.97-.77 1.54-1.74.71-.91 1.03-2.06.99-3.46.22-1.31-.03-2.5-.1-1.24-.67-2.37-.41-1.16-1.31-2.22-2.66-3.15-.68-.66-1.23-.99-.61-.45-1.24-.65-.64-.28-1.45-.39-2.62-.39-1.55-.15-2.71.11-1.3.13-2.32.71-1.12.43-2.08 1.36-2.99 2.84-.66.74-.91 1.24-.41.62-.5 1.25-.21.66-.21 1.61-.1 3.22v1.31l.1 1.95.08.89.36 1.4.23.67.75 1.25 1.71 2.14.71.8 1.43 1.38.73.64 1.47 1.07.75.49 1.51.76.76.34 1.55.44.78.19 1.59.13.8.03 1.63-.17.81-.13 1.66-.48.84-.28m69.55-1.52.86-.65 1.5-1.4.71-.72 1.18-1.54.55-.79.87-1.65.39-.83.54-1.73.23-.88.21-1.79.06-.9-.13-1.82-.11-.91-.48-1.83-1.11-2.72-.68-1.34-1.69-2.19-.89-1.01-2.1-1.53-1.09-.68-2.49-.86-4.13-.52-1.1-.01-2.06.26-.99.16-1.84.55-.9.31-1.61.82-.78.44-1.39 1.05-.67.55-1.15 1.24-.55.65-.91 1.4-.43.71-.66 1.53-.3.77-.4 1.61-.17.81-.13 1.66-.04.83.14 1.67.1.83.42 1.65.24.82.71 1.59.39.78 1 1.5.53.73 1.31 1.36.69.67 1.61 1.19 2.78 1.57.9.42 2.36.39 1.23.13 2.66-.14 1.32-.13 2.49-.63 1.17-.38m-116.37-4.14.15-.1.33-.52.16-.31.33-.86.81-3.29.22-1.41.68-2.57.39-1.25 1.08-2.33.59-1.15 1.52-2.23 2.84-3.35.77-.8 1.06-1.49.46-.72.49-1.28.17-.61-.03-1.01-.08-.47-.49-.69-.3-.3-.89-.3-.49-.1-1.23.14-.65.13-1.51.65-2.52 1.59-1.06.81-1.81 1.9-.86 1-1.44 2.36-.68 1.24-1.13 2.88-1.36 5.01-.18.84-.28 1.39-.14.64-.19 1.05-.17.98-.05 1.24.03.54.37.76 1.06 1.19.44.44.7.57.34.24.59.21.29.06.61-.14.31-.11m27.37-47.45-.19-.46-.27-1.44-.12-.79-.15-1.97-.06-1.04-.02-2.3v-1.18l.08-2.45.06-1.22.19-2.4.1-1.18.28-2.16.15-1.03.37-1.73.63-1.9.24-.48.4-.73.19-.33.26-.39.11-.15.1-.02-.06.44-.27.97-.45 2.69-.21 1.41-.27 3.03-.11 1.49-.04 2.68v.61l.07 1.05.18 1.21.13.54.31.77.17.34.44.42.25.17.66.14 1.35-.05.62-.07.87-.29.39-.19.56-.82.13-.26.24-.68.11-.37.23-.94.11-.51.24-1.25.39-2.29.2-1.2.5-2.23.27-1.09.65-2.03.69-1.98 1.92-3.51 1.07-1.69 2.78-3.13.76-.77 1.71-1.52 2.87-2.27 1.55-1.14 2.6-1.95 1.23-.93 2.04-1.6.96-.77 1.59-1.34.75-.66 1.23-1.2 1.15-1.18 1.66-2.33 2.28-4.27.38-.79.62-1.34.29-.64.46-1.14.43-1.1.47-2.06.18-1.08.08-2.67v-.74l-.04-1.76-.11-3.16-.06-1.41-.09-2.29-.04-1.06.02-1.64.02-.75.19-1.03.12-.45.44-.49.26-.18.77.01.43.06 1.17.45.64.28 1.65.85 3.1 1.64 1.61.86 3.06 2 1.49 1.04 2.78 2.31 1.36 1.2 2.48 2.58 1.19 1.32 2.14 2.79 1.02 1.42 1.75 2.96.83 1.5 1.33 3.07.61 1.54.87 3.12.76 4.7.1 1.24.05 2.33v1.14l-.16 2.15-.1 1.06-.38 2-.21.98-.61 1.88-.66 1.86-2.04 3.45-.58.85-1.34 1.68-2.32 2.5-.77.76-1.27 1.36-.59.65-.94 1.17-.43.57-.62 1.03-.27.5-.3.93-.12.46.01.86.03.43.3.83.18.42.58.85 1.18 1.34.75.74 1.27.95.61.39 1.16.24.59.03 1.26-.46 2.23-1.48 1-.78 2.27-1.38 1.17-.65 2.55-1.09 1.3-.51 2.74-.8 1.39-.37 2.86-.5 1.44-.21 2.89-.18 1.44-.05 2.84.14 1.41.12 2.71.48 3.82 1.13.62.23 1.46.83.76.46 1.65 1.17 1.66 1.23 3.3 2.97.78.74 1.37 1.45.65.7 1.02 1.29.45.61.53.99.1 1.02-.03.04-.28.08-.18.04-.6.07-.33.04-.9.06-.49.04-1.21.06-.64.03-1.5.06-.79.03-1.8.05-.94.03-2.1.05-1.08.02-2.38.04-1.23.02-2.67.04-1.37.02-2.96.03-1.51.02-3.23.03-1.66.01-3.51.02-1.79.02-3.78.01-1.92.01-4.06.01-13.15.02h-12.49l-5.43-.01h-2.62l-4.75-.01-2.29-.01-4.11-.01-1.98-.01-3.53-.03-1.69-.01-2.99-.03-1.42-.02-2.49-.04-1.19-.03-2.04-.05-.96-.03-1.64-.07-.77-.03-1.28-.09-.6-.04-.96-.1-.45-.05-.7-.12-.64-.12-.68-.29-.28-.16Z"/>
</svg>
